<svg width="127" height="131" viewBox="0 0 127 131" fill="none" xmlns="http://www.w3.org/2000/svg">
<path d="M75.125 4C104.512 9.73478 126.69 35.6185 126.69 66.6836C126.69 101.957 98.095 130.552 62.8213 130.552C50.4002 130.552 38.8078 127.006 29 120.871C68.9042 117.223 99.9813 88.3764 99.9814 53.3291C99.9814 33.9025 90.4322 16.3815 75.125 4Z" fill="#D9D9D9"/>
<path d="M11.1729 0C11.1729 0 11.1728 8.47537 13.9336 12.6172C16.6947 16.7588 22.3457 16.7598 22.3457 16.7598C22.3457 16.7598 16.5663 16.9524 13.9336 20.9014C11.3012 24.8506 11.1729 33.5186 11.1729 33.5186C11.1729 33.5186 11.3011 24.8497 8.54004 20.708C6.18949 17.1825 1.65202 16.7982 0.354492 16.7617C1.66077 16.7466 6.25169 16.4354 8.60449 12.9062C11.3654 8.76449 11.1729 0 11.1729 0ZM0.354492 16.7617C0.127806 16.7643 0 16.7598 0 16.7598C0 16.7598 0.127832 16.7554 0.354492 16.7617Z" fill="#D9D9D9"/>
<path d="M56.1729 26C56.1729 26 56.1728 34.4754 58.9336 38.6172C61.6947 42.7588 67.3457 42.7598 67.3457 42.7598C67.3457 42.7598 61.5663 42.9524 58.9336 46.9014C56.3012 50.8506 56.1729 59.5186 56.1729 59.5186C56.1729 59.5186 56.3011 50.8497 53.54 46.708C51.1889 43.1816 46.6497 42.798 45.3535 42.7617C46.6585 42.7467 51.2511 42.4363 53.6045 38.9062C56.3654 34.7645 56.1729 26 56.1729 26ZM45.3535 42.7617C45.1274 42.7643 45 42.7598 45 42.7598C45 42.7598 45.1275 42.7554 45.3535 42.7617Z" fill="#D9D9D9"/>
<path d="M18.1729 67C18.1729 67 18.1728 75.4754 20.9336 79.6172C23.6947 83.7588 29.3457 83.7598 29.3457 83.7598C29.3457 83.7598 23.5663 83.9524 20.9336 87.9014C18.3012 91.8506 18.1729 100.519 18.1729 100.519C18.1729 100.519 18.3011 91.8497 15.54 87.708C13.1889 84.1816 8.64974 83.798 7.35352 83.7617C8.65848 83.7467 13.2511 83.4363 15.6045 79.9062C18.3654 75.7645 18.1729 67 18.1729 67ZM7.35352 83.7617C7.12744 83.7643 7 83.7598 7 83.7598C7 83.7598 7.12746 83.7554 7.35352 83.7617Z" fill="#D9D9D9"/>
</svg>
