<svg width="153" height="153" viewBox="0 0 153 153" fill="none" xmlns="http://www.w3.org/2000/svg">
<circle cx="76.5" cy="76.5" r="41" fill="#111111"/>
<path d="M76.5 126C76.7761 126 77 126.224 77 126.5V149.5L76.9902 149.601C76.9437 149.829 76.7417 150 76.5 150C76.2583 150 76.0563 149.829 76.0098 149.601L76 149.5V126.5C76 126.224 76.2239 126 76.5 126ZM40.8691 111.438C41.0632 111.309 41.3271 111.331 41.498 111.502C41.669 111.673 41.6908 111.937 41.5625 112.131L41.498 112.209L25.2344 128.473C25.0391 128.668 24.7225 128.668 24.5273 128.473C24.3322 128.278 24.3324 127.961 24.5273 127.766L40.791 111.502L40.8691 111.438ZM111.502 111.502C111.697 111.307 112.014 111.307 112.209 111.502L128.473 127.766L128.536 127.844C128.664 128.038 128.644 128.302 128.473 128.473C128.302 128.644 128.038 128.664 127.844 128.536L127.766 128.473L111.502 112.209C111.307 112.014 111.307 111.697 111.502 111.502ZM26.6006 76.0098C26.8286 76.0563 27 76.2583 27 76.5C27 76.7417 26.8286 76.9437 26.6006 76.9902L26.5 77H3.5C3.22386 77 3 76.7761 3 76.5C3 76.2239 3.22386 76 3.5 76H26.5L26.6006 76.0098ZM149.601 76.0098C149.829 76.0563 150 76.2583 150 76.5C150 76.7417 149.829 76.9437 149.601 76.9902L149.5 77H126.5C126.224 77 126 76.7761 126 76.5C126 76.2239 126.224 76 126.5 76H149.5L149.601 76.0098ZM127.844 24.4639C128.038 24.3357 128.302 24.3565 128.473 24.5273C128.644 24.6982 128.664 24.9622 128.536 25.1562L128.473 25.2344L112.209 41.498C112.014 41.6933 111.697 41.6933 111.502 41.498C111.307 41.3028 111.307 40.9863 111.502 40.791L127.766 24.5273L127.844 24.4639ZM24.5273 24.5273C24.7225 24.3322 25.0391 24.3324 25.2344 24.5273L41.498 40.791L41.5625 40.8691C41.6908 41.0632 41.6689 41.3271 41.498 41.498C41.3271 41.669 41.0632 41.6908 40.8691 41.5625L40.791 41.498L24.5273 25.2344C24.3324 25.0391 24.3322 24.7225 24.5273 24.5273ZM76.5 3C76.7761 3 77 3.22386 77 3.5V26.5L76.9902 26.6006C76.9437 26.8286 76.7417 27 76.5 27C76.2583 27 76.0563 26.8286 76.0098 26.6006L76 26.5V3.5C76 3.22386 76.2239 3 76.5 3Z" fill="#111111"/>
<path d="M76.5 126L76.5 123.5H76.5L76.5 126ZM77 126.5L79.5 126.5V126.5L77 126.5ZM77 149.5L79.4883 149.742L79.5 149.621V149.5H77ZM76.9902 149.601L79.4397 150.101L79.4659 149.972L79.4785 149.842L76.9902 149.601ZM76.5 150L76.5 152.5L76.5 152.5L76.5 150ZM76.0098 149.601L73.5215 149.842L73.5341 149.972L73.5603 150.101L76.0098 149.601ZM76 149.5H73.5V149.621L73.5117 149.742L76 149.5ZM76 126.5L78.5 126.5L76 126.5ZM40.8691 111.438L39.4908 109.352L39.3803 109.425L39.2782 109.509L40.8691 111.438ZM41.498 111.502L43.2658 109.734L43.2658 109.734L41.498 111.502ZM41.5625 112.131L43.4909 113.722L43.5752 113.62L43.6482 113.509L41.5625 112.131ZM41.498 112.209L43.2658 113.977L43.3504 113.892L43.4265 113.8L41.498 112.209ZM25.2344 128.473L27.0005 130.242L27.0021 130.24L25.2344 128.473ZM24.5273 128.473L22.7596 130.24L22.7596 130.24L24.5273 128.473ZM24.5273 127.766L22.7596 125.998L22.7579 126L24.5273 127.766ZM40.791 111.502L39.2001 109.574L39.1078 109.65L39.0232 109.734L40.791 111.502ZM111.502 111.502L109.734 109.734L109.734 109.734L111.502 111.502ZM112.209 111.502L113.977 109.734L113.977 109.734L112.209 111.502ZM128.473 127.766L130.413 126.189L130.332 126.089L130.24 125.998L128.473 127.766ZM128.536 127.844L130.622 126.466L130.554 126.363L130.476 126.267L128.536 127.844ZM128.473 128.473L130.24 130.24L130.24 130.24L128.473 128.473ZM127.844 128.536L126.267 130.476L126.363 130.554L126.466 130.622L127.844 128.536ZM127.766 128.473L125.998 130.24L126.089 130.332L126.189 130.413L127.766 128.473ZM111.502 112.209L113.27 110.441L111.502 112.209ZM26.6006 76.0098L27.1005 73.5603L26.9724 73.5341L26.8422 73.5215L26.6006 76.0098ZM26.6006 76.9902L26.8422 79.4785L26.9724 79.4659L27.1005 79.4397L26.6006 76.9902ZM26.5 77V79.5H26.6211L26.7416 79.4883L26.5 77ZM26.5 76L26.7416 73.5117L26.6211 73.5H26.5V76ZM149.601 76.0098L150.101 73.5603L149.972 73.5341L149.842 73.5215L149.601 76.0098ZM150 76.5L152.5 76.5L152.5 76.5L150 76.5ZM149.601 76.9902L149.842 79.4785L149.972 79.4659L150.101 79.4397L149.601 76.9902ZM149.5 77V79.5H149.621L149.742 79.4883L149.5 77ZM126.5 77L126.5 79.5H126.5V77ZM126 76.5L123.5 76.5V76.5L126 76.5ZM126.5 76V78.5V76ZM149.5 76L149.742 73.5117L149.621 73.5H149.5V76ZM127.844 24.4639L126.466 22.3778L126.363 22.4458L126.267 22.5236L127.844 24.4639ZM128.473 24.5273L130.24 22.7596L130.24 22.7596L128.473 24.5273ZM128.536 25.1562L130.476 26.7327L130.554 26.637L130.622 26.5341L128.536 25.1562ZM128.473 25.2344L130.24 27.0021L130.332 26.9109L130.413 26.8109L128.473 25.2344ZM112.209 41.498L113.977 43.2658L113.977 43.2658L112.209 41.498ZM111.502 41.498L109.734 43.2658L109.734 43.2658L111.502 41.498ZM111.502 40.791L113.27 42.5588L111.502 40.791ZM127.766 24.5273L126.189 22.5871L126.089 22.6684L125.998 22.7596L127.766 24.5273ZM24.5273 24.5273L22.7596 22.7596L22.7596 22.7596L24.5273 24.5273ZM25.2344 24.5273L27.0021 22.7596L27.0005 22.7579L25.2344 24.5273ZM41.498 40.791L43.4265 39.2001L43.3504 39.1078L43.2658 39.0232L41.498 40.791ZM41.5625 40.8691L43.6482 39.4908L43.5752 39.3803L43.4909 39.2782L41.5625 40.8691ZM41.498 41.498L43.2658 43.2658L43.2658 43.2658L41.498 41.498ZM40.8691 41.5625L39.2782 43.4909L39.3803 43.5752L39.4908 43.6482L40.8691 41.5625ZM40.791 41.498L39.0232 43.2658L39.1078 43.3504L39.2001 43.4265L40.791 41.498ZM24.5273 25.2344L22.7579 27.0005L22.7596 27.0021L24.5273 25.2344ZM76.5 3L76.5 0.5H76.5L76.5 3ZM77 3.5H74.5H77ZM77 26.5L79.4883 26.7416L79.5 26.6211V26.5H77ZM76.9902 26.6006L79.4397 27.1005L79.4659 26.9724L79.4785 26.8422L76.9902 26.6006ZM76.5 27L76.5 29.5L76.5 29.5L76.5 27ZM76.0098 26.6006L73.5215 26.8422L73.5341 26.9724L73.5603 27.1005L76.0098 26.6006ZM76 26.5H73.5V26.6211L73.5117 26.7416L76 26.5ZM76 3.5L73.5 3.5V3.5H76ZM76.5 126L76.5 128.5C75.3954 128.5 74.5 127.605 74.5 126.5L77 126.5L79.5 126.5C79.5 124.843 78.1569 123.5 76.5 123.5L76.5 126ZM77 126.5H74.5V149.5H77H79.5V126.5H77ZM77 149.5L74.5117 149.258L74.5019 149.359L76.9902 149.601L79.4785 149.842L79.4883 149.742L77 149.5ZM76.9902 149.601L74.5407 149.101C74.7276 148.185 75.5328 147.5 76.5 147.5L76.5 150L76.5 152.5C77.9506 152.5 79.1598 151.472 79.4397 150.101L76.9902 149.601ZM76.5 150L76.5 147.5C77.4672 147.5 78.2724 148.185 78.4593 149.101L76.0098 149.601L73.5603 150.101C73.8402 151.472 75.0494 152.5 76.5 152.5L76.5 150ZM76.0098 149.601L78.4981 149.359L78.4883 149.258L76 149.5L73.5117 149.742L73.5215 149.842L76.0098 149.601ZM76 149.5H78.5V126.5H76H73.5V149.5H76ZM76 126.5L78.5 126.5C78.5 127.605 77.6046 128.5 76.5 128.5L76.5 126L76.5 123.5C74.8431 123.5 73.5 124.843 73.5 126.5L76 126.5ZM40.8691 111.438L42.2475 113.523C41.4663 114.039 40.4127 113.952 39.7303 113.27L41.498 111.502L43.2658 109.734C42.2416 108.71 40.6601 108.579 39.4908 109.352L40.8691 111.438ZM41.498 111.502L39.7303 113.27C39.0479 112.587 38.9605 111.534 39.4768 110.752L41.5625 112.131L43.6482 113.509C44.421 112.34 44.29 110.758 43.2658 109.734L41.498 111.502ZM41.5625 112.131L39.6341 110.54L39.5696 110.618L41.498 112.209L43.4265 113.8L43.4909 113.722L41.5625 112.131ZM41.498 112.209L39.7303 110.441L23.4666 126.705L25.2344 128.473L27.0021 130.24L43.2658 113.977L41.498 112.209ZM25.2344 128.473L23.4683 126.703C24.2473 125.926 25.5123 125.922 26.2951 126.705L24.5273 128.473L22.7596 130.24C23.9327 131.414 25.8309 131.409 27.0005 130.242L25.2344 128.473ZM24.5273 128.473L26.2951 126.705C27.0779 127.488 27.0743 128.753 26.2968 129.532L24.5273 127.766L22.7579 126C21.5906 127.169 21.5864 129.067 22.7596 130.24L24.5273 128.473ZM24.5273 127.766L26.2951 129.533L42.5588 113.27L40.791 111.502L39.0232 109.734L22.7596 125.998L24.5273 127.766ZM40.791 111.502L42.382 113.43L42.4601 113.366L40.8691 111.438L39.2782 109.509L39.2001 109.574L40.791 111.502ZM111.502 111.502L113.27 113.27C112.489 114.051 111.222 114.051 110.441 113.27L112.209 111.502L113.977 109.734C112.805 108.563 110.906 108.563 109.734 109.734L111.502 111.502ZM112.209 111.502L110.441 113.27L126.705 129.533L128.473 127.766L130.24 125.998L113.977 109.734L112.209 111.502ZM128.473 127.766L126.532 129.342L126.596 129.42L128.536 127.844L130.476 126.267L130.413 126.189L128.473 127.766ZM128.536 127.844L126.45 129.222C125.94 128.449 126.016 127.394 126.705 126.705L128.473 128.473L130.24 130.24C131.271 129.209 131.389 127.627 130.622 126.466L128.536 127.844ZM128.473 128.473L126.705 126.705C127.394 126.016 128.449 125.94 129.222 126.45L127.844 128.536L126.466 130.622C127.627 131.389 129.209 131.271 130.24 130.24L128.473 128.473ZM127.844 128.536L129.42 126.596L129.342 126.532L127.766 128.473L126.189 130.413L126.267 130.476L127.844 128.536ZM127.766 128.473L129.533 126.705L113.27 110.441L111.502 112.209L109.734 113.977L125.998 130.24L127.766 128.473ZM111.502 112.209L113.27 110.441C114.051 111.222 114.051 112.489 113.27 113.27L111.502 111.502L109.734 109.734C108.563 110.906 108.563 112.805 109.734 113.977L111.502 112.209ZM26.6006 76.0098L26.1007 78.4593C25.1852 78.2724 24.5 77.4672 24.5 76.5H27H29.5C29.5 75.0494 28.4719 73.8402 27.1005 73.5603L26.6006 76.0098ZM27 76.5H24.5C24.5 75.5328 25.1852 74.7276 26.1007 74.5407L26.6006 76.9902L27.1005 79.4397C28.4719 79.1598 29.5 77.9506 29.5 76.5H27ZM26.6006 76.9902L26.359 74.5019L26.2584 74.5117L26.5 77L26.7416 79.4883L26.8422 79.4785L26.6006 76.9902ZM26.5 77V74.5H3.5V77V79.5H26.5V77ZM3.5 77V74.5C4.60457 74.5 5.5 75.3954 5.5 76.5H3H0.5C0.5 78.1569 1.84315 79.5 3.5 79.5V77ZM3 76.5H5.5C5.5 77.6046 4.60457 78.5 3.5 78.5V76V73.5C1.84315 73.5 0.5 74.8431 0.5 76.5H3ZM3.5 76V78.5H26.5V76V73.5H3.5V76ZM26.5 76L26.2584 78.4883L26.359 78.4981L26.6006 76.0098L26.8422 73.5215L26.7416 73.5117L26.5 76ZM149.601 76.0098L149.101 78.4593C148.185 78.2724 147.5 77.4672 147.5 76.5L150 76.5L152.5 76.5C152.5 75.0494 151.472 73.8401 150.101 73.5603L149.601 76.0098ZM150 76.5L147.5 76.5C147.5 75.5328 148.185 74.7276 149.101 74.5407L149.601 76.9902L150.101 79.4397C151.472 79.1599 152.5 77.9506 152.5 76.5L150 76.5ZM149.601 76.9902L149.359 74.5019L149.258 74.5117L149.5 77L149.742 79.4883L149.842 79.4785L149.601 76.9902ZM149.5 77V74.5H126.5V77V79.5H149.5V77ZM126.5 77L126.5 74.5C127.605 74.5 128.5 75.3954 128.5 76.5L126 76.5L123.5 76.5C123.5 78.1569 124.843 79.5 126.5 79.5L126.5 77ZM126 76.5L128.5 76.5C128.5 77.6046 127.605 78.5 126.5 78.5L126.5 76L126.5 73.5C124.843 73.5 123.5 74.8431 123.5 76.5L126 76.5ZM126.5 76V78.5H149.5V76V73.5H126.5V76ZM149.5 76L149.258 78.4883L149.359 78.4981L149.601 76.0098L149.842 73.5215L149.742 73.5117L149.5 76ZM127.844 24.4639L129.222 26.5499C128.449 27.0603 127.394 26.9844 126.705 26.2951L128.473 24.5273L130.24 22.7596C129.209 21.7285 127.627 21.6111 126.466 22.3778L127.844 24.4639ZM128.473 24.5273L126.705 26.2951C126.016 25.6058 125.94 24.5511 126.45 23.7784L128.536 25.1562L130.622 26.5341C131.389 25.3732 131.271 23.7906 130.24 22.7596L128.473 24.5273ZM128.536 25.1562L126.596 23.5798L126.532 23.6579L128.473 25.2344L130.413 26.8109L130.476 26.7327L128.536 25.1562ZM128.473 25.2344L126.705 23.4666L110.441 39.7303L112.209 41.498L113.977 43.2658L130.24 27.0021L128.473 25.2344ZM112.209 41.498L110.441 39.7303C111.222 38.9492 112.489 38.9493 113.27 39.7303L111.502 41.498L109.734 43.2658C110.906 44.4374 112.805 44.4374 113.977 43.2658L112.209 41.498ZM111.502 41.498L113.27 39.7303C114.051 40.5113 114.051 41.7777 113.27 42.5588L111.502 40.791L109.734 39.0232C108.563 40.1948 108.563 42.0942 109.734 43.2658L111.502 41.498ZM111.502 40.791L113.27 42.5588L129.533 26.2951L127.766 24.5273L125.998 22.7596L109.734 39.0232L111.502 40.791ZM127.766 24.5273L129.342 26.4676L129.42 26.4042L127.844 24.4639L126.267 22.5236L126.189 22.5871L127.766 24.5273ZM24.5273 24.5273L26.2951 26.2951C25.5123 27.0779 24.2473 27.0743 23.4683 26.2968L25.2344 24.5273L27.0005 22.7579C25.8309 21.5906 23.9327 21.5865 22.7596 22.7596L24.5273 24.5273ZM25.2344 24.5273L23.4666 26.2951L39.7303 42.5588L41.498 40.791L43.2658 39.0232L27.0021 22.7596L25.2344 24.5273ZM41.498 40.791L39.5696 42.382L39.6341 42.4601L41.5625 40.8691L43.4909 39.2782L43.4265 39.2001L41.498 40.791ZM41.5625 40.8691L39.4768 42.2475C38.9605 41.4663 39.0479 40.4126 39.7303 39.7303L41.498 41.498L43.2658 43.2658C44.29 42.2416 44.421 40.6602 43.6482 39.4908L41.5625 40.8691ZM41.498 41.498L39.7303 39.7303C40.4127 39.0479 41.4663 38.9605 42.2475 39.4768L40.8691 41.5625L39.4908 43.6482C40.6601 44.421 42.2416 44.29 43.2658 43.2658L41.498 41.498ZM40.8691 41.5625L42.4601 39.6341L42.382 39.5696L40.791 41.498L39.2001 43.4265L39.2782 43.4909L40.8691 41.5625ZM40.791 41.498L42.5588 39.7303L26.2951 23.4666L24.5273 25.2344L22.7596 27.0021L39.0232 43.2658L40.791 41.498ZM24.5273 25.2344L26.2968 23.4683C27.0743 24.2473 27.0779 25.5123 26.2951 26.2951L24.5273 24.5273L22.7596 22.7596C21.5864 23.9327 21.5906 25.8309 22.7579 27.0005L24.5273 25.2344ZM76.5 3L76.5 5.5C75.3954 5.5 74.5 4.60457 74.5 3.5L77 3.5L79.5 3.5C79.5 1.84315 78.1569 0.5 76.5 0.5L76.5 3ZM77 3.5H74.5V26.5H77H79.5V3.5H77ZM77 26.5L74.5117 26.2584L74.5019 26.359L76.9902 26.6006L79.4785 26.8422L79.4883 26.7416L77 26.5ZM76.9902 26.6006L74.5407 26.1007C74.7276 25.1852 75.5328 24.5 76.5 24.5L76.5 27L76.5 29.5C77.9506 29.5 79.1598 28.4719 79.4397 27.1005L76.9902 26.6006ZM76.5 27L76.5 24.5C77.4672 24.5 78.2724 25.1852 78.4593 26.1007L76.0098 26.6006L73.5603 27.1005C73.8402 28.4719 75.0494 29.5 76.5 29.5L76.5 27ZM76.0098 26.6006L78.4981 26.359L78.4883 26.2584L76 26.5L73.5117 26.7416L73.5215 26.8422L76.0098 26.6006ZM76 26.5H78.5V3.5H76H73.5V26.5H76ZM76 3.5L78.5 3.5C78.5 4.60457 77.6046 5.5 76.5 5.5L76.5 3L76.5 0.5C74.8431 0.5 73.5 1.84315 73.5 3.5L76 3.5Z" fill="#111111"/>
</svg>
